<?xml version="1.0" encoding="UTF-8"?><svg id="Layer_2" xmlns="http://www.w3.org/2000/svg" viewBox="0 0 420.53 420.3"><defs><style>.cls-1{fill:#375d7c;}.cls-1,.cls-2,.cls-3{stroke-width:0px;}.cls-2{fill:#5d87a3;}.cls-3{fill:#17bbb0;fill-rule:evenodd;}</style></defs><g id="Layer_1-2"><path class="cls-3" d="m329.39,169.53c-2.22-18.22-11.88-35.13-27.67-44.55-2-1.19-4.02-2.21-6.04-3.05-8.42-3.53-16.88-4.25-24.44-3.63-22.82,1.88-34.11,13.11-51.82,25.65-20.28,12.47-72.4,56.23-96.09,35.56-19.9-17.35-9.83-49.34,14.77-58.64,24.6-9.31,44.69,2.59,44.69,2.59-20.6-10.65-67.06.58-56.87,26.05,6.48,16.2,21.78,12.72,35.42,5.97,17.02-8.43,33.92-22.67,54.14-22.65-14.2-30.81-94.83-48.18-123.66,4.33-1.03,1.88-1.96,3.79-2.78,5.74-4.53,10.7-5.96,22.34-4.61,33.49,2.22,18.22,11.88,35.13,27.67,44.55,2,1.19,4.02,2.21,6.04,3.05,33.73,14.16,85.81-23.87,122.39-49.22,15.55-10.77,31.7-24.29,49.95-8.37,19.9,17.35,9.83,49.34-14.77,58.64-24.6,9.31-44.69-2.59-44.69-2.59,20.6,10.65,67.06-.58,56.87-26.05-6.48-16.2-21.78-12.72-35.42-5.97-17.02,8.43-33.92,22.67-54.14,22.65,14.2,30.81,94.83,48.18,123.66-4.33,1.03-1.88,1.96-3.79,2.78-5.74,4.53-10.7,5.96-22.34,4.61-33.49"/><path class="cls-3" d="m144.15,0c24.13,0,43.7,19.56,43.7,43.7s-19.56,43.7-43.7,43.7-43.7-19.56-43.7-43.7S120.02,0,144.15,0"/><path class="cls-3" d="m279.09,30.33c20.9,0,37.85,16.95,37.85,37.85s-16.95,37.85-37.85,37.85-37.85-16.95-37.85-37.85,16.95-37.85,37.85-37.85"/><path class="cls-1" d="m40.15,286.54c2.13,0,3.96-.75,5.5-2.25,1.54-1.5,2.31-3.35,2.31-5.55s-.77-3.94-2.31-5.45c-1.54-1.5-3.37-2.25-5.5-2.25s-3.96.75-5.5,2.25c-1.54,1.5-2.31,3.32-2.31,5.45s.77,4.05,2.31,5.55c1.54,1.5,3.37,2.25,5.5,2.25Z"/><path class="cls-1" d="m70.4,349.9c-2.05,0-3.85.77-5.39,2.31s-2.31,3.34-2.31,5.39c0,2.2.75,4.05,2.25,5.55s3.32,2.25,5.45,2.25,4.07-.75,5.61-2.25c1.54-1.5,2.31-3.35,2.31-5.55s-.77-3.94-2.31-5.45c-1.54-1.5-3.41-2.25-5.61-2.25Z"/><path class="cls-1" d="m90.97,349.9c-2.13,0-3.96.75-5.5,2.25-1.54,1.5-2.31,3.32-2.31,5.45s.77,4.05,2.31,5.55c1.54,1.5,3.37,2.25,5.5,2.25s3.96-.75,5.5-2.25c1.54-1.5,2.31-3.35,2.31-5.55s-.77-3.94-2.31-5.45c-1.54-1.5-3.37-2.25-5.5-2.25Z"/><path class="cls-1" d="m114.84,322.73c0,1.32-.46,2.44-1.38,3.36-.92.92-2.04,1.38-3.36,1.38h-13.64c-2.13,0-4-.72-5.61-2.15-1.61-1.43-2.53-3.21-2.75-5.33v-23.32h-13.42v23.21c0,2.05-.73,3.83-2.2,5.33-1.47,1.5-3.23,2.26-5.28,2.26h-12.21c-2.05,0-3.89-.72-5.5-2.15-1.61-1.43-2.57-3.21-2.86-5.33v-21.67h-13.31v21.56c0,2.05-.73,3.83-2.2,5.33-1.47,1.5-3.26,2.26-5.39,2.26h-7.7c-1.32,0-2.44-.46-3.35-1.38-.92-.92-1.38-2.04-1.38-3.36v-58.85H0v58.85c0,3.23.81,6.23,2.42,9.02,1.61,2.79,3.81,4.99,6.6,6.6,2.79,1.61,5.79,2.42,9.02,2.42h9.24c2.57,0,5.02-.53,7.37-1.59,2.35-1.06,4.4-2.51,6.16-4.35,1.83,1.83,3.98,3.28,6.43,4.35,2.46,1.06,5.04,1.59,7.75,1.59h13.64c2.64,0,5.13-.53,7.48-1.59,2.35-1.06,4.36-2.51,6.05-4.35,1.91,1.83,4.09,3.28,6.54,4.35,2.46,1.06,5.04,1.59,7.75,1.59h13.75c3.23,0,6.21-.81,8.96-2.42,2.75-1.61,4.93-3.81,6.54-6.6,1.61-2.79,2.42-5.79,2.42-9.02v-58.74h-13.31v58.74Z"/><path class="cls-1" d="m369.27,282.2c-5.5-4.22-11.66-7.02-18.48-8.42-3.74-.66-6.58-1.06-8.52-1.21-1.94-.15-5.45-.26-10.51-.33l-.11,13.09c6.45,0,12.14.51,17.05,1.54,4.99.95,9.37,2.93,13.14,5.94,3.78,3.01,6.71,6.82,8.8,11.44,2.09,4.62,3.13,9.75,3.13,15.4v5.61c0,.66-.2,1.21-.61,1.65-.4.44-.93.66-1.59.66h-6.38c.44-1.54.66-3.15.66-4.84v-4.18c0-4.69-1.1-9.04-3.3-13.04-2.2-4-5.23-7.15-9.08-9.46-3.85-2.31-8.12-3.46-12.82-3.46s-8.6.93-12.38,2.8c-3.78,1.87-6.78,4.47-9.02,7.81-2.24,3.34-3.36,7.13-3.36,11.39,0,2.42.42,4.79,1.27,7.09.84,2.31,2,4.27,3.46,5.88h-10.89v-.11h-144.87c-1.32,0-2.44-.46-3.35-1.38-.92-.92-1.38-2.04-1.38-3.36v-58.85h-13.31v58.85c0,3.23.81,6.23,2.42,9.02,1.61,2.79,3.81,4.99,6.6,6.6,2.79,1.61,5.79,2.42,9.02,2.42h209c3.59,0,6.67-1.28,9.24-3.85s3.85-5.68,3.85-9.35v-7.92c0-7.85-1.58-15-4.73-21.45-3.15-6.45-7.48-11.79-12.98-16Zm-16.5,42.62c0,.73-.29,1.38-.88,1.92-.59.55-1.25.83-1.98.83h-10.67c-2.57,0-4.88-1.06-6.93-3.19-2.05-2.13-3.08-4.77-3.08-7.92s1.17-5.72,3.52-7.7c2.35-1.98,4.99-2.97,7.92-2.97,2.27,0,4.33.61,6.16,1.82,1.83,1.21,3.28,2.7,4.34,4.46,1.06,1.76,1.6,3.52,1.6,5.28v7.48Z"/><path class="cls-1" d="m407.5,249.64c-.62-.84-.93-1.74-.93-2.7,0-1.03.37-1.87,1.1-2.53.73-.66,1.61-.99,2.64-.99,1.25,0,2.24.31,2.97.93.73.62,1.39,1.63,1.98,3.03l5.28-3.74c-.81-2.2-2.11-3.94-3.91-5.23-1.8-1.28-3.9-1.92-6.32-1.92-2.79,0-5.19.94-7.21,2.81-2.02,1.87-3.17,4.16-3.47,6.88-.07,1.61.29,3.19,1.1,4.73h-3.74v6.71h23.43v-6.71h-10.12c-1.25,0-2.18-.42-2.81-1.26Z"/><rect class="cls-1" x="401.61" y="263.77" width="13.31" height="76.78"/><path class="cls-2" d="m90.12,407.45c0,2.91-.76,5.04-2.29,6.37-1.53,1.33-3.66,2.19-6.4,2.57l1.25,3.38c3.12-.31,5.73-1.5,7.83-3.56,2.1-2.06,3.15-4.98,3.15-8.76v-23.66h-3.54v23.66Z"/><path class="cls-2" d="m105.54,385.15c-1.75,1.08-3.12,2.53-4.11,4.37-.99,1.84-1.48,3.85-1.48,6.03s.49,4.2,1.48,6.06,2.36,3.32,4.11,4.39c1.75,1.08,3.7,1.61,5.85,1.61h6.86l-.05,1.2c-.1,2.08-.8,3.71-2.08,4.89-1.11,1-2.43,1.74-3.95,2.21-1.53.47-2.92.74-4.19.81s-2.82.1-4.65.1l-.05,3.48c3.88.03,6.96-.23,9.23-.78,2.27-.55,4.24-1.65,5.9-3.28,2.29-2.08,3.43-4.84,3.43-8.27v-24.44h-10.45c-2.15,0-4.1.54-5.85,1.61Zm12.77,18.93h-6.92c-1.53,0-2.89-.38-4.11-1.14s-2.16-1.79-2.83-3.09c-.68-1.3-1.01-2.73-1.01-4.29s.34-2.98,1.01-4.26c.68-1.28,1.62-2.3,2.83-3.04,1.21-.75,2.58-1.12,4.11-1.12h6.92v16.95Z"/><path class="cls-2" d="m135.2,379.01c.69,0,1.27-.23,1.74-.7.47-.47.7-1.05.7-1.74s-.24-1.22-.73-1.69c-.49-.47-1.06-.7-1.72-.7s-1.23.23-1.72.7c-.49.47-.73,1.03-.73,1.69,0,.69.24,1.27.73,1.74.48.47,1.06.7,1.72.7Z"/><path class="cls-2" d="m152.21,382.6c.69,0,1.28-.24,1.77-.73.49-.48.73-1.06.73-1.72s-.24-1.22-.73-1.69c-.49-.47-1.08-.7-1.77-.7s-1.22.23-1.69.7c-.47.47-.7,1.03-.7,1.69s.23,1.23.7,1.72c.47.49,1.03.73,1.69.73Z"/><path class="cls-2" d="m225.81,402.98c-.68-.73-1.01-1.65-1.01-2.76v-2.34c0-2.6-.44-4.84-1.33-6.73-.88-1.89-2.07-3.39-3.56-4.5-2.67-2.04-6.12-3.07-10.35-3.07-1.53,0-2.99.13-4.39.39s-2.59.56-3.56.91l1.35,3.22c.73-.28,1.7-.52,2.91-.73,1.21-.21,2.48-.31,3.8-.31,3.36,0,6.07.8,8.11,2.39,2.39,1.84,3.59,4.7,3.59,8.58v2.18c0,.83.19,1.59.57,2.26s.88,1.21,1.51,1.59h-64.9c-1.21,0-2.26-.43-3.15-1.3-.88-.87-1.36-1.91-1.43-3.12v-10.97h-3.54v10.97c0,1.21-.43,2.25-1.3,3.12s-1.89,1.3-3.07,1.3h-3.43c-1.56,0-2.9-.55-4.03-1.66-1.13-1.11-1.69-2.46-1.69-4.06v-14.56h-3.48v23.66c0,2.81-.73,4.88-2.18,6.21s-3.54,2.26-6.24,2.78l1.25,3.33c2.95-.52,5.43-1.72,7.46-3.59,2.03-1.87,3.09-4.54,3.2-8.01l.05-3.54c.52.94,1.3,1.66,2.34,2.18,1.04.52,2.17.78,3.38.78h3.69c1.25,0,2.4-.31,3.46-.94,1.06-.62,1.92-1.44,2.57-2.44.62,1.01,1.48,1.82,2.57,2.44,1.09.62,2.28.94,3.56.94h70.41v-3.54h-.62c-1.01,0-1.85-.36-2.52-1.09Z"/><path class="cls-2" d="m212.27,412.81c-.66,0-1.22.23-1.69.7-.47.47-.7,1.03-.7,1.69s.23,1.23.7,1.72c.47.49,1.03.73,1.69.73.69,0,1.28-.24,1.77-.73.48-.49.73-1.06.73-1.72s-.24-1.22-.73-1.69c-.49-.47-1.08-.7-1.77-.7Z"/><path class="cls-2" d="m310,383.14c-2.1-1.75-4.48-2.96-7.15-3.61-1.63-.42-3.08-.72-4.34-.91-1.27-.19-2.9-.3-4.91-.34l-.05,3.48c3.02,0,5.91.4,8.68,1.2,2.15.56,4.06,1.55,5.72,2.99,1.66,1.44,2.96,3.2,3.87,5.28.92,2.08,1.38,4.33,1.38,6.76v4.89c0,.35-.1.63-.31.86-.21.23-.49.34-.83.34h-5.72c.21-.42.31-.92.31-1.51v-4.84c0-1.94-.47-3.74-1.4-5.41-.94-1.66-2.22-2.98-3.85-3.95-1.63-.97-3.42-1.46-5.36-1.46s-3.61.43-5.2,1.3c-1.59.87-2.86,2.05-3.8,3.56-.94,1.51-1.4,3.18-1.4,5.02,0,1.49.36,2.9,1.07,4.24.71,1.33,1.64,2.35,2.78,3.04h-9.36c-1.25,0-2.32-.48-3.22-1.43-.9-.95-1.35-2.12-1.35-3.51v-27.72h-3.48v41.29c0,.42-.11.78-.34,1.09-.23.31-.55.47-.96.47h-11.13c-1.63,0-3.13-.4-4.5-1.2-1.37-.8-2.45-1.88-3.25-3.25-.8-1.37-1.2-2.87-1.2-4.5v-7.64h-3.54v7.64c0,2.25.55,4.34,1.66,6.27,1.11,1.92,2.63,3.44,4.55,4.55,1.92,1.11,4.01,1.66,6.27,1.66h12.48c.94,0,1.74-.34,2.42-1.01s1.01-1.48,1.01-2.42v-9.52c.38.8,1,1.46,1.87,1.98.87.52,1.79.78,2.76.78h32.45c1.11,0,2.06-.42,2.86-1.25s1.2-1.8,1.2-2.91v-5.46c0-3.02-.59-5.81-1.77-8.37-1.18-2.56-2.82-4.72-4.91-6.47Zm-6.84,19.94c0,.28-.11.51-.34.7-.23.19-.48.29-.75.29h-6.4c-1.14,0-2.22-.3-3.22-.91-1.01-.61-1.82-1.43-2.44-2.47s-.94-2.2-.94-3.48.32-2.43.96-3.46c.64-1.02,1.5-1.83,2.57-2.42,1.07-.59,2.22-.88,3.43-.88,1.28,0,2.47.33,3.56.99,1.09.66,1.96,1.53,2.6,2.6.64,1.08.96,2.2.96,3.38v5.67Z"/><path class="cls-2" d="m325.21,365.52c-.42-.5-.62-1.07-.62-1.69,0-.69.22-1.27.65-1.74.43-.47.98-.7,1.64-.7.69,0,1.27.23,1.74.68.47.45.77,1.04.91,1.77l1.66-.94c-.21-.97-.71-1.79-1.51-2.47-.8-.68-1.73-1.01-2.81-1.01-1.18,0-2.19.42-3.04,1.27s-1.27,1.9-1.27,3.15c0,.83.33,1.65.99,2.44h-1.77v1.92h9.26v-1.92h-4.16c-.69,0-1.25-.25-1.66-.75Z"/><rect class="cls-2" x="324.59" y="371.21" width="3.48" height="36.19"/></g></svg>